<?xml version="1.0" standalone="no"?>
<!DOCTYPE svg PUBLIC "-//W3C//DTD SVG 20010904//EN"
 "http://www.w3.org/TR/2001/REC-SVG-20010904/DTD/svg10.dtd">
<svg version="1.0" xmlns="http://www.w3.org/2000/svg"
 width="2000.000000pt" height="2000.000000pt" viewBox="0 0 2000.000000 2000.000000"
 preserveAspectRatio="xMidYMid meet">
<metadata>
Created by potrace 1.16, written by Peter Selinger 2001-2019
</metadata>
<g transform="translate(0.000000,2000.000000) scale(0.100000,-0.100000)"
fill="#000000" stroke="none">
<path d="M9178 14236 c-706 -410 -944 -554 -935 -562 18 -16 365 -214 376
-214 9 0 1879 1085 1894 1099 7 7 -372 233 -384 230 -2 -1 -430 -249 -951
-553z"/>
<path d="M9935 13809 c-522 -302 -951 -553 -952 -557 -4 -11 406 -244 422
-240 19 4 1904 1091 1905 1098 0 5 -274 165 -385 226 l-40 22 -950 -549z"/>
<path d="M10757 13335 c-517 -299 -943 -547 -948 -552 -13 -13 390 -246 413
-240 30 8 1898 1091 1896 1099 -4 11 -399 238 -412 237 -6 0 -433 -245 -949
-544z"/>
<path d="M7427 13233 l-447 -255 2 -1760 3 -1759 1290 -745 c710 -410 1392
-804 1516 -875 l225 -130 390 225 389 225 3 225 c1 124 0 226 -3 226 -3 0
-177 -100 -388 -221 -210 -122 -386 -222 -392 -222 -5 1 -602 343 -1325 761
l-1315 760 0 1532 0 1532 445 252 c244 139 445 257 447 262 3 9 -367 225 -383
223 -5 0 -210 -116 -457 -256z"/>
<path d="M11568 12862 c-521 -301 -946 -551 -945 -557 4 -12 388 -234 406
-235 15 0 1911 1091 1911 1100 0 6 -407 240 -417 240 -4 0 -434 -247 -955
-548z"/>
<path d="M12143 12253 l-943 -546 0 -244 0 -243 33 17 c19 10 446 256 950 548
l917 529 0 243 c0 134 -3 243 -7 242 -5 0 -432 -246 -950 -546z"/>
<path d="M12138 11307 l-938 -542 0 -248 0 -248 58 33 c32 18 460 265 950 548
l892 515 0 242 c0 188 -3 243 -12 242 -7 0 -435 -244 -950 -542z"/>
<path d="M12148 10362 l-948 -547 0 -243 0 -243 41 24 c23 14 450 260 950 548
l908 524 1 243 c0 133 -1 242 -2 242 -2 0 -429 -247 -950 -548z"/>
<path d="M12143 9422 l-943 -545 0 -238 0 -238 138 80 c75 43 502 290 947 547
l810 468 3 237 c1 130 -1 237 -5 236 -5 -1 -432 -247 -950 -547z"/>
<path d="M4628 6515 c-175 -48 -277 -170 -281 -335 -5 -197 92 -283 433 -385
242 -72 313 -121 312 -216 -1 -78 -61 -137 -165 -165 -157 -42 -334 17 -423
141 l-22 29 -86 -34 c-47 -19 -86 -39 -86 -44 0 -21 65 -109 112 -151 57 -51
165 -106 248 -126 89 -22 272 -16 348 10 166 57 260 170 270 325 5 86 -8 139
-51 203 -58 88 -158 138 -447 227 -144 45 -211 82 -234 131 -34 72 3 152 89
191 108 50 261 39 343 -23 25 -19 72 -78 87 -110 2 -5 160 49 169 57 12 12
-39 101 -87 150 -96 101 -202 140 -371 139 -61 0 -132 -7 -158 -14z"/>
<path d="M7188 6514 c-102 -24 -196 -79 -278 -163 -116 -118 -176 -253 -187
-423 -28 -414 265 -726 661 -705 167 9 297 68 409 187 118 124 177 280 177
465 0 199 -60 348 -194 480 -89 89 -167 134 -277 160 -79 18 -234 18 -311 -1z
m241 -174 c208 -39 351 -229 351 -465 0 -140 -45 -255 -133 -345 -211 -211
-558 -149 -686 123 -169 359 102 757 468 687z"/>
<path d="M8760 6514 c-219 -59 -383 -225 -446 -455 -27 -98 -25 -282 5 -379
88 -289 312 -460 600 -460 148 0 265 39 378 124 56 42 153 155 153 177 0 5
-37 27 -82 50 l-82 41 -20 -28 c-89 -127 -257 -199 -408 -174 -185 29 -323
165 -364 358 -17 85 -17 130 1 217 40 187 167 319 343 356 152 31 330 -36 418
-159 l28 -40 83 41 c46 23 83 46 83 52 0 19 -90 125 -142 166 -63 50 -150 92
-233 114 -75 19 -241 19 -315 -1z"/>
<path d="M5550 6430 l0 -90 190 0 190 0 0 -555 0 -555 95 0 95 0 0 555 0 555
185 0 185 0 0 90 0 90 -470 0 -470 0 0 -90z"/>
<path d="M9810 5875 l0 -645 90 0 90 0 0 201 0 201 76 89 c42 49 79 89 83 89
3 -1 98 -131 210 -290 l205 -290 113 0 c62 0 113 2 113 5 0 3 -113 164 -251
357 -138 194 -253 357 -256 364 -2 6 103 134 233 285 l237 274 -113 3 c-63 1
-119 1 -126 -2 -6 -2 -125 -136 -265 -296 l-254 -292 -3 296 -2 296 -90 0 -90
0 0 -645z"/>
<path d="M11040 6430 l0 -90 190 0 190 0 0 -555 0 -555 95 0 95 0 0 555 0 555
185 0 185 0 0 90 0 90 -470 0 -470 0 0 -90z"/>
<path d="M12551 6498 c-29 -77 -451 -1259 -451 -1264 0 -2 46 -3 101 -2 l102
3 61 172 61 173 226 0 225 0 61 -172 60 -173 102 -3 c55 -1 101 1 101 5 0 4
-103 294 -229 643 l-229 635 -91 3 c-87 3 -92 2 -100 -20z m178 -496 c41 -119
76 -223 79 -229 3 -10 -32 -13 -158 -13 -92 0 -160 4 -158 9 2 5 37 108 78
230 41 121 77 221 80 221 3 0 38 -98 79 -218z"/>
<path d="M13530 5875 l0 -645 95 0 95 0 0 205 0 206 73 84 c39 47 74 85 77 85
3 0 98 -130 210 -290 l205 -290 113 0 c61 0 112 3 112 6 0 3 -115 168 -256
366 -229 322 -254 361 -241 376 7 9 114 133 235 274 122 141 222 259 222 262
0 3 -54 6 -119 6 l-119 0 -253 -291 -254 -292 -3 292 -2 291 -95 0 -95 0 0
-645z"/>
<path d="M14830 5875 l0 -645 430 0 430 0 0 95 0 95 -340 0 -340 0 0 185 0
185 305 0 305 0 0 90 0 90 -305 0 -305 0 0 185 0 185 335 0 335 0 0 90 0 90
-425 0 -425 0 0 -645z"/>
</g>
</svg>
